# xmcd
#
# Track frame offsets:
#	150
#	19697
#	37530
#	58345
#	69422
#	87112
#	103000
#	114935
#	133747
#	153105
#	168042
#	184857
#	196960
#	207915
#
# Disc length: 3105
#
# Revision: 1
# Processed by: cddbd v1.5.1PL0 Copyright (c) Steve Scherf et al.
# Submitted via: CDex 1.50
# Normalized: r0:TRMNUM
#
DISCID=ac0c1f0e
DTITLE=Enam - Purple and Gold
DYEAR=2003
DGENRE=New Age
TTITLE0=Shields
TTITLE1=Purple and Gold
TTITLE2=Arinya
TTITLE3=Wings of the Warrior
TTITLE4=First Human Feeling
TTITLE5=Dha 'Mara
TTITLE6=The Wherryman
TTITLE7=Ishmael
TTITLE8=Sights Of Men
TTITLE9=Nishra's Dance
TTITLE10=The Way She Moved
TTITLE11=Leaving For The Heat
TTITLE12=Indenite Flow
TTITLE13=I Lost You At Last
EXTD=YEAR: 2003
EXTT0=
EXTT1=
EXTT2=
EXTT3=
EXTT4=
EXTT5=
EXTT6=
EXTT7=
EXTT8=
EXTT9=
EXTT10=
EXTT11=
EXTT12=
EXTT13=
PLAYORDER=
